<svg width="135" height="40" viewBox="0 0 135 40" fill="none" xmlns="http://www.w3.org/2000/svg">
<path fill-rule="evenodd" clip-rule="evenodd" d="M112.72 1V6.52H128.96V22.8667H134.48V6.52V1.13333V1H112.72Z" fill="white"/>
<path fill-rule="evenodd" clip-rule="evenodd" d="M22.7467 39.1068H18.16L14.48 27.8802L10.8 39.1068H6.26667L0 16.3335H5.86667L8.82667 28.3602L12.5067 16.3335H16.48L20.16 28.3602L23.12 16.3335H28.9867L22.7467 39.1068Z" fill="white"/>
<path fill-rule="evenodd" clip-rule="evenodd" d="M37.7067 39.1068V16.3335H53.1733V21.3202H43.28V25.1335H51.7333V30.1202H43.28V34.1202H53.1733V39.1068H37.7067Z" fill="white"/>
<path fill-rule="evenodd" clip-rule="evenodd" d="M63.5467 39.1068V16.3335H69.1467V39.1068H63.5467Z" fill="white"/>
<path fill-rule="evenodd" clip-rule="evenodd" d="M86.64 39.2934C83.4687 39.578 80.3289 38.4796 78.0267 36.28L81.6 32.7067C83.0414 33.8518 84.8561 34.4219 86.6933 34.3067C88.88 34.3067 89.9467 33.56 89.9467 32.2534C89.9726 31.7672 89.8103 31.2897 89.4933 30.92C89.0676 30.5758 88.5462 30.371 88 30.3334L85.3333 29.96C83.6202 29.8187 82.0046 29.1048 80.7467 27.9334C79.6425 26.6797 79.0772 25.0412 79.1733 23.3734C79.1733 19.2134 82.32 16.1734 87.4933 16.1734C90.3133 15.9514 93.0977 16.9182 95.1733 18.84L91.5733 22.3334C90.3858 21.2978 88.8199 20.8049 87.2533 20.9734C85.3067 20.9734 84.5867 22.0934 84.5867 23.08C84.5938 23.4809 84.7564 23.8634 85.04 24.1467C85.4689 24.5483 86.0265 24.7846 86.6133 24.8134L89.28 25.2134C90.9386 25.3234 92.514 25.9798 93.76 27.08C94.9746 28.4448 95.5811 30.2452 95.44 32.0667C95.44 36.76 91.44 39.2934 86.64 39.2934Z" fill="white"/>
<path fill-rule="evenodd" clip-rule="evenodd" d="M111.84 39.2934C108.66 39.5824 105.51 38.4839 103.2 36.2801L106.667 32.7067C108.112 33.8451 109.924 34.4143 111.76 34.3067C113.973 34.3067 115.013 33.5601 115.013 32.2534C115.036 31.7721 114.885 31.2986 114.587 30.9201C114.157 30.5611 113.625 30.3465 113.067 30.3067L110.4 29.9334C108.696 29.7863 107.091 29.0728 105.84 27.9067C104.726 26.6591 104.159 25.0162 104.267 23.3467C104.267 19.1867 107.387 16.1467 112.587 16.1467C115.399 15.9257 118.174 16.8929 120.24 18.8134L116.773 22.3334C115.586 21.2979 114.02 20.8049 112.453 20.9734C110.48 20.9734 109.787 22.0934 109.787 23.0801C109.794 23.481 109.956 23.8634 110.24 24.1467C110.669 24.5483 111.226 24.7846 111.813 24.8134L114.48 25.2134C116.139 25.3234 117.714 25.9798 118.96 27.0801C120.195 28.434 120.813 30.2398 120.667 32.0667C120.64 36.7601 116.64 39.2934 111.84 39.2934Z" fill="white"/>
</svg>
